<?xml version="1.0" encoding="UTF-8" standalone="no"?>
<svg
   xmlns:dc="http://purl.org/dc/elements/1.1/"
   xmlns:cc="http://creativecommons.org/ns#"
   xmlns:rdf="http://www.w3.org/1999/02/22-rdf-syntax-ns#"
   xmlns:svg="http://www.w3.org/2000/svg"
   xmlns="http://www.w3.org/2000/svg"
   xmlns:sodipodi="http://sodipodi.sourceforge.net/DTD/sodipodi-0.dtd"
   xmlns:inkscape="http://www.inkscape.org/namespaces/inkscape"
   viewBox="0 0 426.07904 260.87519"
   version="1.1"
   id="svg39"
   sodipodi:docname="lox2.svg"
   inkscape:version="0.92.5 (2060ec1f9f, 2020-04-08)"
   width="426.07904"
   height="260.87518">
  <metadata
     id="metadata3875">
    <rdf:RDF>
      <cc:Work
         rdf:about="">
        <dc:format>image/svg+xml</dc:format>
        <dc:type
           rdf:resource="http://purl.org/dc/dcmitype/StillImage" />
        <dc:title>JAX Light Stroke</dc:title>
      </cc:Work>
    </rdf:RDF>
  </metadata>
  <sodipodi:namedview
     id="namedview39"
     pagecolor="#ffffff"
     bordercolor="#000000"
     borderopacity="0.25"
     inkscape:showpageshadow="2"
     inkscape:pageopacity="0.0"
     inkscape:pagecheckerboard="0"
     inkscape:deskcolor="#d1d1d1"
     showgrid="false"
     inkscape:zoom="1.1138869"
     inkscape:cx="159.40427"
     inkscape:cy="227.67619"
     inkscape:window-width="1848"
     inkscape:window-height="1016"
     inkscape:window-x="72"
     inkscape:window-y="238"
     inkscape:window-maximized="1"
     inkscape:current-layer="svg39"
     showguides="false"
     fit-margin-top="0"
     fit-margin-left="0"
     fit-margin-right="0"
     fit-margin-bottom="0" />
  <defs
     id="defs1">
    <style
       id="style1">.cls-1{fill:#5e97f6;}.cls-1,.cls-2,.cls-3,.cls-4,.cls-5,.cls-6,.cls-7,.cls-8,.cls-9{stroke:#dce0df;stroke-linejoin:round;}.cls-2{fill:#2a56c6;}.cls-3{fill:#00796b;}.cls-4{fill:#3367d6;}.cls-5{fill:#26a69a;}.cls-6{fill:#9c27b0;}.cls-7{fill:#6a1b9a;}.cls-8{fill:#00695c;}.cls-9{fill:#ea80fc;}</style>
  </defs>
  <title
     id="title1">JAX Light Stroke</title>
  <g
     id="Layer_2"
     data-name="Layer 2"
     transform="translate(-24.92094)">
    <g
       id="Layer_1-2"
       data-name="Layer 1">
      <polygon
         class="cls-1"
         points="75.5,173.71 100.5,130.4 50.5,130.4 25.5,173.71 "
         id="polygon2"
         style="fill:#5e97f6;stroke:#dce0df;stroke-linejoin:round" />
      <polygon
         class="cls-1"
         points="75.5,173.71 100.5,130.4 50.5,130.4 25.5,173.71 "
         id="polygon2-5"
         style="fill:#5e97f6;stroke:#dce0df;stroke-linejoin:round"
         transform="translate(50.126973,-86.56615)" />
      <polygon
         class="cls-1"
         points="100.5,130.4 50.5,130.4 25.5,173.71 75.5,173.71 "
         id="polygon2-5-9"
         style="fill:#5e97f6;stroke:#dce0df;stroke-linejoin:round"
         transform="translate(75.126973,-129.87615)" />
      <polygon
         class="cls-1"
         points="75.5,173.71 50.5,217.01 0.5,217.01 25.5,173.71 "
         id="polygon3-6"
         style="fill:#5e97f6;stroke:#dce0df;stroke-linejoin:round"
         transform="translate(50.126973,-86.56615)" />
      <polygon
         class="cls-1"
         points="50.5,217.01 100.5,217.01 125.5,173.71 75.5,173.71 "
         id="polygon4"
         style="fill:#5e97f6;stroke:#dce0df;stroke-linejoin:round" />
      <polygon
         class="cls-1"
         points="100.5,217.01 150.5,217.01 175.5,173.71 125.5,173.71 "
         id="polygon5"
         style="fill:#5e97f6;stroke:#dce0df;stroke-linejoin:round" />
      <polygon
         class="cls-1"
         points="175.5,173.71 200.5,130.4 150.5,130.4 125.5,173.71 "
         id="polygon6"
         style="fill:#26a69a;stroke:#dce0df;stroke-linejoin:round" />
      <polygon
         class="cls-1"
         points="200.5,130.4 225.5,87.1 175.5,87.1 150.5,130.4 "
         id="polygon7"
         style="fill:#26a69a;stroke:#dce0df;stroke-linejoin:round" />
      <polygon
         class="cls-1"
         points="225.5,87.1 250.5,43.8 200.5,43.8 175.5,87.1 "
         id="polygon8"
         style="fill:#26a69a;stroke:#dce0df;stroke-linejoin:round" />
      <polygon
         class="cls-1"
         points="250.5,43.8 275.5,0.5 225.5,0.5 200.5,43.8 "
         id="polygon9"
         style="fill:#26a69a;stroke:#dce0df;stroke-linejoin:round" />
      <polygon
         class="cls-1"
         points="250.5,43.8 275.5,0.5 225.5,0.5 200.5,43.8 "
         id="polygon9-2"
         style="fill:#26a69a;stroke:#dce0df;stroke-linejoin:round"
         transform="translate(102.49577,0.04738418)" />
      <polygon
         class="cls-3"
         points="150.5,217.01 175.5,260.31 200.5,217.01 175.5,173.71 "
         id="polygon13"
         style="fill:#00796b;stroke:#dce0df;stroke-linejoin:round" />
      <polygon
         class="cls-3"
         points="175.5,260.31 200.5,217.01 175.5,173.71 150.5,217.01 "
         id="polygon13-5"
         style="fill:#3367d6;stroke:#dce0df;stroke-linejoin:round"
         transform="translate(-50.079097,-86.489622)" />
      <polygon
         class="cls-3"
         points="150.5,217.01 175.5,260.31 200.5,217.01 175.5,173.71 "
         id="polygon13-5-2"
         style="fill:#3367d6;stroke:#dce0df;stroke-linejoin:round"
         transform="translate(-25.065632,-129.74905)" />
      <polygon
         class="cls-3"
         points="150.5,217.01 175.5,260.31 200.5,217.01 175.5,173.71 "
         id="polygon13-5-2-0"
         style="fill:#3367d6;stroke:#dce0df;stroke-linejoin:round"
         transform="translate(0.126973,-173.17615)" />
      <polygon
         class="cls-3"
         points="250.5,130.4 275.5,87.1 250.5,43.8 225.5,87.1 "
         id="polygon15"
         style="fill:#00796b;stroke:#dce0df;stroke-linejoin:round" />
      <polygon
         class="cls-3"
         points="250.5,130.4 275.5,87.1 250.5,43.8 225.5,87.1 "
         id="polygon15-7"
         style="fill:#00796b;stroke:#dce0df;stroke-linejoin:round"
         transform="translate(-24.818754,43.071118)" />
      <polygon
         class="cls-4"
         points="75.5,173.71 125.5,173.71 100.5,130.4 "
         id="polygon16"
         style="fill:#3367d6;stroke:#dce0df;stroke-linejoin:round" />
      <polygon
         class="cls-4"
         points="100.5,130.4 75.5,173.71 125.5,173.71 "
         id="polygon16-2"
         style="fill:#00796b;stroke:#dce0df;stroke-linejoin:round"
         transform="translate(100.18163,0.01373529)" />
      <polygon
         class="cls-5"
         points="250.5,130.4 200.5,130.4 175.5,173.71 225.5,173.71 "
         id="polygon17"
         transform="translate(-25.549404,43.365183)"
         style="fill:#26a69a;stroke:#dce0df;stroke-linejoin:round" />
      <polygon
         class="cls-5"
         points="300.5,130.4 250.5,130.4 225.5,173.71 275.5,173.71 "
         id="polygon18"
         transform="translate(-25.549404,43.365183)"
         style="fill:#26a69a;stroke:#dce0df;stroke-linejoin:round" />
      <polygon
         class="cls-6"
         points="300.5,43.8 325.5,87.1 350.5,43.8 325.5,0.5 "
         id="polygon19"
         style="fill:#9c27b0;stroke:#dce0df;stroke-linejoin:round" />
      <polygon
         class="cls-6"
         points="325.5,87.1 350.5,130.4 375.5,87.1 350.5,43.8 "
         id="polygon20"
         style="fill:#9c27b0;stroke:#dce0df;stroke-linejoin:round" />
      <polygon
         class="cls-6"
         points="350.5,130.4 375.5,173.71 400.5,130.4 375.5,87.1 "
         id="polygon21"
         style="fill:#9c27b0;stroke:#dce0df;stroke-linejoin:round" />
      <polygon
         class="cls-6"
         points="375.5,173.71 400.5,217.01 425.5,173.71 400.5,130.4 "
         id="polygon22"
         style="fill:#9c27b0;stroke:#dce0df;stroke-linejoin:round" />
      <polygon
         class="cls-6"
         points="400.5,217.01 425.5,260.31 450.5,217.01 425.5,173.71 "
         id="polygon23"
         style="fill:#9c27b0;stroke:#dce0df;stroke-linejoin:round" />
      <polygon
         class="cls-6"
         points="425.5,87.1 450.5,43.8 425.5,0.5 400.5,43.8 "
         id="polygon24"
         style="fill:#9c27b0;stroke:#dce0df;stroke-linejoin:round" />
      <polygon
         class="cls-6"
         points="425.5,87.1 400.5,130.4 375.5,87.1 400.5,43.8 "
         id="polygon25"
         style="fill:#9c27b0;stroke:#dce0df;stroke-linejoin:round" />
      <polygon
         class="cls-6"
         points="350.5,217.01 375.5,173.71 350.5,130.4 325.5,173.71 "
         id="polygon26"
         style="fill:#9c27b0;stroke:#dce0df;stroke-linejoin:round" />
      <polygon
         class="cls-6"
         points="325.5,173.71 350.5,217.01 325.5,260.31 300.5,217.01 "
         id="polygon27"
         style="fill:#9c27b0;stroke:#dce0df;stroke-linejoin:round" />
      <polygon
         class="cls-7"
         points="300.5,217.01 325.5,260.31 275.5,260.31 250.5,217.01 "
         id="polygon28"
         style="fill:#00695c;stroke:#dce0df;stroke-linejoin:round" />
      <polygon
         class="cls-8"
         points="225.5,173.71 175.5,173.71 200.5,217.01 250.5,217.01 "
         id="polygon29"
         transform="translate(-25.549404,43.365183)"
         style="fill:#00695c;stroke:#dce0df;stroke-linejoin:round" />
      <polygon
         class="cls-8"
         points="225.5,173.71 175.5,173.71 200.5,217.01 250.5,217.01 "
         id="polygon29-1"
         transform="translate(24.481421,43.333985)"
         style="fill:#00695c;stroke:#dce0df;stroke-linejoin:round" />
      <polygon
         class="cls-8"
         points="350.5,130.4 325.5,87.1 275.5,87.1 300.5,130.4 "
         id="polygon31"
         style="fill:#6a1b9a;stroke:#dce0df;stroke-linejoin:round" />
      <polygon
         class="cls-8"
         points="275.5,87.1 325.5,87.1 300.5,43.8 250.5,43.8 "
         id="polygon32"
         style="fill:#6a1b9a;stroke:#dce0df;stroke-linejoin:round" />
      <polygon
         class="cls-8"
         points="350.5,217.01 375.5,260.31 425.5,260.31 400.5,217.01 "
         id="polygon33"
         style="fill:#6a1b9a;stroke:#dce0df;stroke-linejoin:round" />
      <polygon
         class="cls-8"
         points="400.5,217.01 375.5,173.71 350.5,217.01 "
         id="polygon34"
         style="fill:#6a1b9a;stroke:#dce0df;stroke-linejoin:round" />
      <polygon
         class="cls-9"
         points="250.5,43.8 300.5,43.8 325.5,0.5 275.5,0.5 "
         id="polygon35"
         style="fill:#ea80fc;stroke:#dce0df;stroke-linejoin:round" />
      <polygon
         class="cls-9"
         points="250.5,217.01 300.5,217.01 325.5,173.71 275.5,173.71 "
         id="polygon36"
         style="fill:#26a69a;stroke:#dce0df;stroke-linejoin:round" />
      <polygon
         class="cls-9"
         points="275.5,173.71 325.5,173.71 350.5,130.4 300.5,130.4 "
         id="polygon37"
         style="fill:#26a69a;stroke:#dce0df;stroke-linejoin:round" />
      <polygon
         class="cls-9"
         points="350.5,43.8 400.5,43.8 425.5,0.5 375.5,0.5 "
         id="polygon38"
         style="fill:#26a69a;stroke:#dce0df;stroke-linejoin:round" />
      <polygon
         class="cls-9"
         points="400.5,43.8 375.5,87.1 350.5,43.8 "
         id="polygon39"
         style="fill:#26a69a;stroke:#dce0df;stroke-linejoin:round" />
      <polygon
         transform="translate(49.920903,0.110378)"
         class="cls-1"
         points="100.5,130.4 50.5,130.4 25.5,173.71 75.5,173.71 "
         id="polygon2-3"
         style="fill:#5e97f6;stroke:#dce0df;stroke-linejoin:round" />
      <polygon
         transform="translate(99.450596,0.055183)"
         class="cls-1"
         points="50.5,130.4 25.5,173.71 75.5,173.71 100.5,130.4 "
         id="polygon2-3-6"
         style="fill:#5e97f6;stroke:#dce0df;stroke-linejoin:round" />
      <polygon
         transform="translate(149.4506,0.055183)"
         class="cls-1"
         points="25.5,173.71 75.5,173.71 100.5,130.4 50.5,130.4 "
         id="polygon2-3-6-7"
         style="fill:#5e97f6;stroke:#dce0df;stroke-linejoin:round" />
      <polygon
         transform="translate(74.450596,-43.234817)"
         class="cls-2"
         points="150.5,217.01 175.5,260.31 125.5,260.31 100.5,217.01 "
         id="polygon12-5"
         style="fill:#2a56c6;stroke:#dce0df;stroke-linejoin:round" />
      <polygon
         transform="translate(25.18163,-43.286265)"
         class="cls-2"
         points="175.5,260.31 125.5,260.31 100.5,217.01 150.5,217.01 "
         id="polygon12-5-3"
         style="fill:#2a56c6;stroke:#dce0df;stroke-linejoin:round" />
      <polygon
         transform="translate(-25,-43.3)"
         class="cls-2"
         points="150.5,217.01 175.5,260.31 125.5,260.31 100.5,217.01 "
         id="polygon12-56"
         style="fill:#2a56c6;stroke:#dce0df;stroke-linejoin:round" />
      <polygon
         transform="translate(-75.079097,-43.189622)"
         class="cls-2"
         points="175.5,260.31 125.5,260.31 100.5,217.01 150.5,217.01 "
         id="polygon12-56-2"
         style="fill:#2a56c6;stroke:#dce0df;stroke-linejoin:round" />
      <polygon
         class="cls-3"
         points="175.5,260.31 200.5,217.01 175.5,173.71 150.5,217.01 "
         id="polygon13-5-2-9"
         style="fill:#3367d6;stroke:#dce0df;stroke-linejoin:round"
         transform="translate(74.450596,-43.244817)" />
      <polygon
         class="cls-8"
         points="175.5,173.71 200.5,217.01 250.5,217.01 225.5,173.71 "
         id="polygon29-12"
         transform="translate(-75.549404,43.365183)"
         style="fill:#00695c;stroke:#dce0df;stroke-linejoin:round" />
    </g>
  </g>
</svg>
