<?xml version="1.0" encoding="UTF-8" standalone="no"?>
<svg
   viewBox="0 0 451 260.81"
   version="1.1"
   id="svg39"
   sodipodi:docname="lox3.svg"
   inkscape:version="1.3.2 (1:1.3.2+202311252150+091e20ef0f)"
   xmlns:inkscape="http://www.inkscape.org/namespaces/inkscape"
   xmlns:sodipodi="http://sodipodi.sourceforge.net/DTD/sodipodi-0.dtd"
   xmlns="http://www.w3.org/2000/svg"
   xmlns:svg="http://www.w3.org/2000/svg"
   xmlns:rdf="http://www.w3.org/1999/02/22-rdf-syntax-ns#"
   xmlns:cc="http://creativecommons.org/ns#"
   xmlns:dc="http://purl.org/dc/elements/1.1/">
  <metadata
     id="metadata63">
    <rdf:RDF>
      <cc:Work
         rdf:about="">
        <dc:format>image/svg+xml</dc:format>
        <dc:type
           rdf:resource="http://purl.org/dc/dcmitype/StillImage" />
        <dc:title>JAX Light Stroke</dc:title>
      </cc:Work>
    </rdf:RDF>
  </metadata>
  <sodipodi:namedview
     id="namedview39"
     pagecolor="#ffffff"
     bordercolor="#000000"
     borderopacity="0.25"
     inkscape:showpageshadow="2"
     inkscape:pageopacity="0.0"
     inkscape:pagecheckerboard="0"
     inkscape:deskcolor="#d1d1d1"
     showgrid="false"
     inkscape:zoom="1.1938157"
     inkscape:cx="334.64127"
     inkscape:cy="24.291857"
     inkscape:window-width="1920"
     inkscape:window-height="1016"
     inkscape:window-x="0"
     inkscape:window-y="27"
     inkscape:window-maximized="1"
     inkscape:current-layer="Layer_1-2" />
  <defs
     id="defs1">
    <style
       id="style1">.cls-1{fill:#5e97f6;}.cls-1,.cls-2,.cls-3,.cls-4,.cls-5,.cls-6,.cls-7,.cls-8,.cls-9{stroke:#dce0df;stroke-linejoin:round;}.cls-2{fill:#2a56c6;}.cls-3{fill:#00796b;}.cls-4{fill:#3367d6;}.cls-5{fill:#26a69a;}.cls-6{fill:#9c27b0;}.cls-7{fill:#6a1b9a;}.cls-8{fill:#00695c;}.cls-9{fill:#ea80fc;}</style>
  </defs>
  <title
     id="title1">JAX Light Stroke</title>
  <g
     id="Layer_2"
     data-name="Layer 2">
    <g
       id="Layer_1-2"
       data-name="Layer 1">
      <polygon
         class="cls-1"
         points="75.5,173.71 100.5,130.4 50.5,130.4 25.5,173.71 "
         id="polygon2-5"
         style="fill:#5e97f6;stroke:#dce0df;stroke-linejoin:round"
         transform="translate(-26.057974,-128.95111)" />
      <polygon
         class="cls-1"
         points="175.5 173.71 125.5 173.71 100.5 217.01 150.5 217.01 175.5 173.71"
         id="polygon5"
         style="fill:#5e97f6" />
      <polygon
         class="cls-1"
         points="150.5 130.4 125.5 173.71 175.5 173.71 200.5 130.4 150.5 130.4"
         id="polygon6"
         style="fill:#26a69a" />
      <polygon
         class="cls-1"
         points="175.5 87.1 150.5 130.4 200.5 130.4 225.5 87.1 175.5 87.1"
         id="polygon7"
         style="fill:#26a69a" />
      <polygon
         class="cls-1"
         points="200.5 43.8 175.5 87.1 225.5 87.1 250.5 43.8 200.5 43.8"
         id="polygon8"
         style="fill:#26a69a" />
      <polygon
         class="cls-1"
         points="225.5 0.5 200.5 43.8 250.5 43.8 275.5 0.5 225.5 0.5"
         id="polygon9"
         style="fill:#26a69a" />
      <polygon
         class="cls-1"
         points="200.5,43.8 250.5,43.8 275.5,0.5 225.5,0.5 "
         id="polygon9-2"
         style="fill:#26a69a;stroke:#dce0df;stroke-linejoin:round"
         transform="translate(100)" />
      <polygon
         class="cls-2"
         points="50.5,217.01 100.5,217.01 125.5,260.31 75.5,260.31 "
         id="polygon11"
         transform="translate(25.111192,-43.307493)" />
      <polygon
         class="cls-2"
         points="75.5,260.31 50.5,217.01 100.5,217.01 125.5,260.31 "
         id="polygon11-5"
         transform="translate(-0.00846684,-86.14165)"
         style="fill:#2a56c6;stroke:#dce0df;stroke-linejoin:round" />
      <polygon
         class="cls-2"
         points="125.5,260.31 75.5,260.31 50.5,217.01 100.5,217.01 "
         id="polygon11-5-5"
         transform="translate(-25.04484,-129.11311)"
         style="fill:#2a56c6;stroke:#dce0df;stroke-linejoin:round" />
      <polygon
         class="cls-2"
         points="100.5,217.01 125.5,260.31 75.5,260.31 50.5,217.01 "
         id="polygon11-5-5-2"
         transform="translate(-50.158361,-171.99588)"
         style="fill:#2a56c6;stroke:#dce0df;stroke-linejoin:round" />
      <polygon
         class="cls-2"
         points="175.5 260.31 125.5 260.31 100.5 217.01 150.5 217.01 175.5 260.31"
         id="polygon12" />
      <polygon
         class="cls-3"
         points="200.5 217.01 175.5 173.71 150.5 217.01 175.5 260.31 200.5 217.01"
         id="polygon13" />
      <polygon
         class="cls-3"
         points="175.5,173.71 150.5,217.01 175.5,260.31 200.5,217.01 "
         id="polygon13-5-2"
         style="fill:#3367d6;stroke:#dce0df;stroke-linejoin:round"
         transform="translate(-100.19529,-172.60621)" />
      <polygon
         class="cls-3"
         points="175.5,173.71 150.5,217.01 175.5,260.31 200.5,217.01 "
         id="polygon13-5-2-0"
         style="fill:#3367d6;stroke:#dce0df;stroke-linejoin:round"
         transform="translate(-75.133227,-129.5923)" />
      <polygon
         class="cls-3"
         points="200.5,217.01 175.5,173.71 150.5,217.01 175.5,260.31 "
         id="polygon13-5-2-0-1"
         style="fill:#3367d6;stroke:#dce0df;stroke-linejoin:round"
         transform="translate(-49.825315,-86.153078)" />
      <polygon
         class="cls-3"
         points="175.5,260.31 200.5,217.01 175.5,173.71 150.5,217.01 "
         id="polygon13-5-2-0-1-7"
         style="fill:#3367d6;stroke:#dce0df;stroke-linejoin:round"
         transform="translate(-24.921862,-42.740553)" />
      <polygon
         class="cls-3"
         points="250.5 43.8 225.5 87.1 250.5 130.4 275.5 87.1 250.5 43.8"
         id="polygon15" />
      <polygon
         class="cls-3"
         points="250.5,43.8 225.5,87.1 250.5,130.4 275.5,87.1 "
         id="polygon15-7"
         style="fill:#00796b;stroke:#dce0df;stroke-linejoin:round"
         transform="translate(-24.818754,43.071118)" />
      <polygon
         class="cls-4"
         points="75.5,173.71 125.5,173.71 100.5,130.4 "
         id="polygon16-2"
         style="fill:#00796b;stroke:#dce0df;stroke-linejoin:round"
         transform="translate(100.18163,0.01373529)" />
      <polygon
         class="cls-5"
         points="225.5,173.71 250.5,130.4 200.5,130.4 175.5,173.71 "
         id="polygon17"
         transform="translate(-24.81837,43.323735)"
         style="fill:#26a69a;stroke:#dce0df;stroke-linejoin:round" />
      <polygon
         class="cls-5"
         points="225.5,173.71 275.5,173.71 300.5,130.4 250.5,130.4 "
         id="polygon18"
         transform="translate(-25.549404,43.365183)" />
      <polygon
         class="cls-6"
         points="350.5 43.8 325.5 0.5 300.5 43.8 325.5 87.1 350.5 43.8"
         id="polygon19" />
      <polygon
         class="cls-6"
         points="375.5 87.1 350.5 43.8 325.5 87.1 350.5 130.4 375.5 87.1"
         id="polygon20" />
      <polygon
         class="cls-6"
         points="400.5 130.4 375.5 87.1 350.5 130.4 375.5 173.71 400.5 130.4"
         id="polygon21" />
      <polygon
         class="cls-6"
         points="425.5 173.71 400.5 130.4 375.5 173.71 400.5 217.01 425.5 173.71"
         id="polygon22" />
      <polygon
         class="cls-6"
         points="450.5 217.01 425.5 173.71 400.5 217.01 425.5 260.31 450.5 217.01"
         id="polygon23" />
      <polygon
         class="cls-6"
         points="425.5 0.5 400.5 43.8 425.5 87.1 450.5 43.8 425.5 0.5"
         id="polygon24" />
      <polygon
         class="cls-6"
         points="375.5 87.1 400.5 43.8 425.5 87.1 400.5 130.4 375.5 87.1"
         id="polygon25" />
      <polygon
         class="cls-6"
         points="325.5,173.71 350.5,217.01 375.5,173.71 350.5,130.4 "
         id="polygon26"
         transform="translate(-0.549404,0.065183)"
         style="fill:#9c27b0;stroke:#dce0df;stroke-linejoin:round" />
      <polygon
         class="cls-6"
         points="300.5,217.01 325.5,173.71 350.5,217.01 325.5,260.31 "
         id="polygon27"
         transform="translate(-0.549404,0.065183)"
         style="fill:#9c27b0;stroke:#dce0df;stroke-linejoin:round" />
      <polygon
         class="cls-7"
         points="250.5,217.01 300.5,217.01 325.5,260.31 275.5,260.31 "
         id="polygon28"
         style="fill:#2a56c6;stroke:#dce0df;stroke-linejoin:round"
         transform="translate(-0.549404,0.065183)" />
      <polygon
         class="cls-8"
         points="250.5,217.01 225.5,173.71 175.5,173.71 200.5,217.01 "
         id="polygon29"
         transform="translate(-25,43.3)"
         style="fill:#2a56c6;stroke:#dce0df;stroke-linejoin:round" />
      <polygon
         class="cls-8"
         points="250.5,217.01 225.5,173.71 175.5,173.71 200.5,217.01 "
         id="polygon29-1"
         transform="translate(24.450596,43.365183)"
         style="fill:#2a56c6;stroke:#dce0df;stroke-linejoin:round" />
      <polygon
         class="cls-8"
         points="275.5 87.1 300.5 130.4 350.5 130.4 325.5 87.1 275.5 87.1"
         id="polygon31"
         style="fill:#6a1b9a" />
      <polygon
         class="cls-8"
         points="300.5 43.8 250.5 43.8 275.5 87.1 325.5 87.1 300.5 43.8"
         id="polygon32"
         style="fill:#6a1b9a" />
      <polygon
         class="cls-8"
         points="425.5 260.31 400.5 217.01 350.5 217.01 375.5 260.31 425.5 260.31"
         id="polygon33"
         style="fill:#6a1b9a" />
      <polygon
         class="cls-8"
         points="375.5 173.71 350.5 217.01 400.5 217.01 375.5 173.71"
         id="polygon34"
         style="fill:#6a1b9a" />
      <polygon
         class="cls-9"
         points="325.5 0.5 275.5 0.5 250.5 43.8 300.5 43.8 325.5 0.5"
         id="polygon35" />
      <polygon
         class="cls-9"
         points="275.5,173.71 250.5,217.01 300.5,217.01 325.5,173.71 "
         id="polygon36"
         style="fill:#26a69a;stroke:#dce0df;stroke-linejoin:round"
         transform="translate(-0.549404,0.065183)" />
      <polygon
         class="cls-9"
         points="300.5,130.4 275.5,173.71 325.5,173.71 350.5,130.4 "
         id="polygon37"
         style="fill:#26a69a;stroke:#dce0df;stroke-linejoin:round"
         transform="translate(-0.549404,0.065183)" />
      <polygon
         class="cls-9"
         points="425.5 0.5 375.5 0.5 350.5 43.8 400.5 43.8 425.5 0.5"
         id="polygon38"
         style="fill:#26a69a" />
      <polygon
         class="cls-9"
         points="375.5 87.1 350.5 43.8 400.5 43.8 375.5 87.1"
         id="polygon39"
         style="fill:#26a69a" />
    </g>
  </g>
</svg>
